<svg xmlns="http://www.w3.org/2000/svg" xmlns:svg="http://www.w3.org/2000/svg" id="svg2" width="100" height="100" version="1.1" viewBox="0 0 100 100"><metadata id="metadata7"/><g id="layer1" transform="translate(0,-952.36217)"><path style="fill:#000;fill-opacity:1;stroke-width:0;stroke-miterlimit:4;stroke-dasharray:none" id="rect4138-4-6-6" d="m 79.39258,962.36217 -21.214845,21.21289 -7.070313,-7.07031 -7.070312,7.07226 7.070312,7.07028 10.607422,10.60761 7.070313,7.0703 7.072263,-7.0703 -7.07031,-7.07051 L 90,972.96959 79.39258,962.36217 Z M 40.501954,987.5692 c 0,0 -14.60069,11.96049 -28.609375,12.5625 -0.251611,0.011 -2.189453,-0.14061 -2.189453,-0.14061 3.535533,17.67781 26.139496,40.31221 41.496093,40.09771 0.177711,0 0.62041,-0.59 0.75,-0.7168 13.301413,-13.0739 12.910157,-27.4004 12.910157,-27.4004 L 40.501954,987.5692 Z"/></g></svg>