<svg xmlns="http://www.w3.org/2000/svg" xmlns:svg="http://www.w3.org/2000/svg" id="svg2" width="100" height="100" version="1.1" viewBox="0 0 100 100"><metadata id="metadata7"/><g id="layer1" transform="translate(0,-952.36217)"><path style="fill:#000;fill-opacity:1;stroke-width:0;stroke-linejoin:bevel;stroke-miterlimit:4;stroke-dasharray:none" id="path8658" d="m 50,954.86217 a 47.499999,47.500007 0 0 0 -47.5,47.50003 47.499999,47.500007 0 0 0 47.5,47.5 47.499999,47.500007 0 0 0 47.5,-47.5 A 47.499999,47.500007 0 0 0 50,954.86217 Z m 0,11.1758 A 36.323527,36.323534 0 0 1 86.32422,1002.3622 36.323527,36.323534 0 0 1 50,1038.6864 36.323527,36.323534 0 0 1 13.675781,1002.3622 36.323527,36.323534 0 0 1 50,966.03797 Z m -15,11.3242 -10,10 15,15.00003 -15,15 10,10 15,-15 15,15 10,-10 -15,-15 15,-15.00003 -10,-10 -15,15 -15,-15 z"/></g></svg>