<svg xmlns="http://www.w3.org/2000/svg" xmlns:svg="http://www.w3.org/2000/svg" id="svg2" width="100" height="100" version="1.1" viewBox="0 0 100 100"><metadata id="metadata7"/><g id="layer1" transform="translate(0,-952.36217)"><path id="path8658" d="m 50,964.86217 a 37.499999,37.499971 0 0 0 -37.5,37.50003 37.499999,37.499971 0 0 0 37.5,37.5 37.499999,37.499971 0 0 0 37.5,-37.5 A 37.499999,37.499971 0 0 0 50,964.86217 Z m 0,8.82422 A 28.676469,28.676448 0 0 1 78.67578,1002.3622 28.676469,28.676448 0 0 1 50,1031.038 28.676469,28.676448 0 0 1 21.324219,1002.3622 28.676469,28.676448 0 0 1 50,973.68639 Z" style="fill:#000;fill-opacity:1;stroke-width:0;stroke-linejoin:bevel;stroke-miterlimit:4;stroke-dasharray:none"/></g></svg>