<svg xmlns="http://www.w3.org/2000/svg" xmlns:svg="http://www.w3.org/2000/svg" id="svg2" width="100" height="100" version="1.1" viewBox="0 0 100 100"><metadata id="metadata7"/><g id="layer1" transform="translate(0,-952.36217)"><path style="fill:#000;fill-opacity:1;fill-rule:evenodd;stroke:#000;stroke-width:0;stroke-linecap:butt;stroke-linejoin:miter;stroke-opacity:1;stroke-miterlimit:4;stroke-dasharray:none" id="path6391" d="M 41.976562 4.6933594 L 29.951172 15.306641 L 29.951172 31.226562 L 41 43 L 42 43 L 42 38 L 42 36 L 35.962891 29.457031 L 35.962891 17.076172 L 43.980469 10 L 54 10 L 62.015625 17.076172 L 62.015625 29.457031 L 56 36 L 56 43 L 57 43 L 68.029297 31.226562 L 68.029297 15.306641 L 56.003906 4.6933594 L 41.976562 4.6933594 z M 45.546875 29.964844 L 45.546875 69.373047 L 52.453125 69.373047 L 52.453125 29.964844 L 45.546875 29.964844 z M 41 57 L 29.951172 68.773438 L 29.951172 84.693359 L 41.976562 95.306641 L 56.003906 95.306641 L 68.029297 84.693359 L 68.029297 68.773438 L 57 57 L 56 57 L 56 64 L 62.015625 70.542969 L 62.015625 82.923828 L 54 90 L 43.980469 90 L 35.962891 82.923828 L 35.962891 70.542969 L 42 64 L 42 62 L 42 57 L 41 57 z" transform="translate(0,952.36217)"/></g></svg>