<svg xmlns="http://www.w3.org/2000/svg" xmlns:svg="http://www.w3.org/2000/svg" id="svg2" width="100" height="100" version="1.1" viewBox="0 0 100 100"><metadata id="metadata7"/><g id="layer1" transform="translate(0,-952.36217)"><path id="rect4138-4-6-4" d="M 50 5 L 35 18.333984 L 42.5 18.333984 L 42.5 25 L 57.5 25 L 57.5 18.333984 L 65 18.333984 L 50 5 z M 30 30 L 30 70 L 32.970703 70 L 65.871094 70 L 70 70 L 70 30 L 30 30 z M 18.333984 35 L 5 50 L 18.333984 65 L 18.333984 57.5 L 25 57.5 L 25 42.5 L 18.333984 42.5 L 18.333984 35 z M 81.666016 35 L 81.666016 42.5 L 75 42.5 L 75 57.5 L 81.666016 57.5 L 81.666016 65 L 95 50 L 81.666016 35 z M 35.939453 35.941406 L 64.060547 35.941406 L 64.060547 64.060547 L 35.939453 64.060547 L 35.939453 35.941406 z M 42.5 75 L 42.5 81.666016 L 35 81.666016 L 50 95 L 65 81.666016 L 57.5 81.666016 L 57.5 75 L 42.5 75 z" transform="translate(0,952.36217)" style="fill:#000;fill-opacity:1;stroke-width:0;stroke-miterlimit:4;stroke-dasharray:none"/></g></svg>