<svg xmlns="http://www.w3.org/2000/svg" xmlns:svg="http://www.w3.org/2000/svg" id="svg2" width="100" height="100" version="1.1" viewBox="0 0 100 100"><metadata id="metadata7"/><g id="layer1" transform="translate(0,-952.36217)"><path style="fill:#000;fill-opacity:1;stroke-width:0;stroke-miterlimit:4;stroke-dasharray:none" id="rect4138-4-6" d="M 5 5 L 5 8.7148438 L 5 95 L 95 95 L 95 5 L 5 5 z M 12.429688 12.429688 L 87.570312 12.429688 L 87.570312 87.570312 L 12.429688 87.570312 L 12.429688 12.429688 z M 80 20 L 53.365234 26.443359 L 66.824219 29.808594 L 50 39.904297 L 60.09375 50 L 70.189453 33.173828 L 73.554688 46.634766 L 80 20 z M 40.09375 50 L 30.185547 66.509766 L 26.882812 53.302734 L 20 80 L 46.697266 73.115234 L 33.488281 69.8125 L 50 59.90625 L 40.09375 50 z" transform="translate(0,952.36217)"/></g></svg>