<svg xmlns="http://www.w3.org/2000/svg" xmlns:svg="http://www.w3.org/2000/svg" id="svg2" width="100" height="100" version="1.1" viewBox="0 0 100 100"><metadata id="metadata7"/><g id="layer1" transform="translate(0,-952.36217)"><path style="fill:#000;fill-opacity:1;stroke-width:0;stroke-miterlimit:4;stroke-dasharray:none" id="rect4138-4-4" d="M 80.498047 7.5 C 77.43311 7.5 74.368044 8.6729544 72.019531 11.021484 L 55.640625 27.402344 L 54.814453 26.576172 C 52.237036 23.998752 48.087183 23.998752 45.509766 26.576172 C 42.932351 29.153602 42.932351 33.303439 45.509766 35.880859 L 48.751953 39.125 L 15.017578 72.859375 C 11.659871 76.217175 11.659871 81.624722 15.017578 84.982422 C 18.375284 88.340122 23.782918 88.340122 27.140625 84.982422 L 60.875 51.248047 L 64.117188 54.490234 C 66.694603 57.067634 70.846414 57.067634 73.423828 54.490234 C 76.001244 51.912834 76.001244 47.763027 73.423828 45.185547 L 72.597656 44.359375 L 88.976562 27.980469 C 93.673586 23.283419 93.673586 15.718544 88.976562 11.021484 C 86.62805 8.6729544 83.562982 7.5 80.498047 7.5 z M 52.888672 42.960938 L 57.039062 47.111328 L 52.621094 51.529297 C 52.60515 51.545989 52.594536 51.56562 52.578125 51.582031 L 23.738281 80.419922 C 22.586129 81.572074 20.73223 81.572074 19.580078 80.419922 C 18.427926 79.26777 18.427926 77.413871 19.580078 76.261719 L 48.417969 47.421875 C 48.43438 47.405464 48.454011 47.39485 48.470703 47.378906 L 52.888672 42.960938 z" transform="translate(0,952.36217)"/></g></svg>