<svg xmlns="http://www.w3.org/2000/svg" xmlns:svg="http://www.w3.org/2000/svg" id="svg2" width="100" height="100" version="1.1" viewBox="0 0 100 100"><metadata id="metadata7"/><g id="layer1" transform="translate(0,-952.36217)"><path style="fill:#000;fill-opacity:1;stroke:none;stroke-width:.1;stroke-miterlimit:4;stroke-dasharray:none;stroke-opacity:1" id="rect4258-0-77" d="M 21 16 L 21 29 L 34 29 L 34 16 L 21 16 z M 36 16 L 36 29 L 49 29 L 49 16 L 36 16 z M 51 16 L 51 29 L 64 29 L 64 26 L 64 24 L 64 16 L 51 16 z M 66 26 L 66 39 L 79 39 L 79 26 L 66 26 z M 21 31 L 21 44 L 34 44 L 34 31 L 21 31 z M 66 41 L 66 54 L 79 54 L 79 41 L 66 41 z M 21 46 L 21 59 L 34 59 L 34 51 L 34 49 L 34 46 L 21 46 z M 36 51 L 36 64 L 49 64 L 49 51 L 36 51 z M 51 51 L 51 64 L 64 64 L 64 56 L 64 54 L 64 51 L 51 51 z M 21 61 L 21 74 L 34 74 L 34 61 L 21 61 z M 21 76 L 21 89 L 34 89 L 34 76 L 21 76 z" transform="translate(0,952.36217)"/></g></svg>