<svg xmlns="http://www.w3.org/2000/svg" xmlns:svg="http://www.w3.org/2000/svg" id="svg2" width="100" height="100" version="1.1" viewBox="0 0 100 100"><metadata id="metadata7"/><g id="layer1" transform="translate(0,-952.36217)"><path style="fill:#000;fill-opacity:1;stroke-width:0;stroke-miterlimit:4;stroke-dasharray:none" id="rect4138-4-6" d="m 49.779297,959.86219 1.986328,15.04883 -4.376953,-0.0508 c -19.329978,0 -34.000017,15.6719 -34,35.00198 0,19.33 15.670034,35 35,35 7.108209,0 13.721029,-2.1191 19.242187,-5.7598 0.798315,-0.5264 1.571422,-1.0875 2.322266,-1.6758 l -7.146484,-7.1484 c -0.09981,0.071 -0.195995,0.1476 -0.296875,0.2168 -4.017887,2.755 -8.881377,4.3672 -14.121094,4.3672 -13.807119,0 -25,-11.1929 -25,-25 -1.7e-5,-13.80723 10.19287,-25.00198 24,-25.00198 l 0,-0.0391 4.376953,-0.0117 -1.990234,15.05273 L 85,979.86022 49.779297,959.86217 Z"/></g></svg>