<svg xmlns="http://www.w3.org/2000/svg" xmlns:svg="http://www.w3.org/2000/svg" id="svg2" width="100" height="100" version="1.1" viewBox="0 0 100 100"><metadata id="metadata7"/><g id="layer1" transform="translate(0,-952.36217)"><g id="layer1-3"><path id="path8658" d="M 42.5 7.5 L 42.5 18.414062 A 32.499999 32.499961 0 0 0 32.933594 22.386719 L 25.234375 14.6875 L 14.662109 25.257812 L 22.357422 32.953125 A 32.499999 32.499961 0 0 0 18.404297 42.548828 L 7.5 42.548828 L 7.5 57.5 L 18.414062 57.5 A 32.499999 32.499961 0 0 0 22.386719 67.066406 L 14.662109 74.791016 L 25.234375 85.363281 L 32.953125 77.642578 A 32.499999 32.499961 0 0 0 42.5 81.583984 L 42.5 92.451172 L 57.5 92.451172 L 57.5 81.585938 A 32.499999 32.499961 0 0 0 67.035156 77.630859 L 74.765625 85.363281 L 85.337891 74.791016 L 77.625 67.078125 A 32.499999 32.499961 0 0 0 81.583984 57.5 L 92.5 57.5 L 92.5 42.548828 L 81.580078 42.548828 A 32.499999 32.499961 0 0 0 77.630859 32.964844 L 85.337891 25.257812 L 74.765625 14.6875 L 67.078125 22.375 A 32.499999 32.499961 0 0 0 57.5 18.416016 L 57.5 7.5 L 42.5 7.5 z M 50 32.794922 A 17.205881 17.205845 0 0 1 67.205078 50 A 17.205881 17.205845 0 0 1 50 67.205078 A 17.205881 17.205845 0 0 1 32.794922 50 A 17.205881 17.205845 0 0 1 50 32.794922 z" transform="translate(0,952.36217)" style="fill:#000;fill-opacity:1;stroke-width:0;stroke-linejoin:bevel;stroke-miterlimit:4;stroke-dasharray:none"/></g></g></svg>